<svg xmlns="http://www.w3.org/2000/svg" version="1.1" xmlns:xlink="http://www.w3.org/1999/xlink" xmlns:svgjs="http://svgjs.dev/svgjs" width="175" height="175"><svg width="175" height="175" viewBox="0 0 175 175" fill="none" xmlns="http://www.w3.org/2000/svg">
<rect width="175" height="175" fill="#002500"></rect>
<path d="M130.404 137.445L130.404 129.071C127.208 129.084 124.007 129.101 120.807 129.117L120.806 129.117C117.574 129.134 114.341 129.151 111.112 129.164L111.016 129.164L111.016 129.069L111.016 46.0384L111.016 45.9428L111.112 45.9428L130.404 45.9428L130.404 37.5552L87.5005 37.7748L44.5965 37.9945L44.6353 41.968L44.6742 45.9428L63.8881 45.9428L63.9837 45.9428L63.9837 46.0384L63.9837 129.309L63.9837 129.404L63.8885 129.404C60.6594 129.418 57.427 129.434 54.1946 129.451L54.1926 129.451C50.9929 129.467 47.7931 129.484 44.5965 129.497L44.6353 133.471L44.6742 137.445L130.404 137.445ZM91.9625 45.9828L92.058 45.9828L92.058 46.0784L92.058 129.589L92.058 129.684L91.9624 129.684L82.706 129.684L82.6105 129.684L82.6105 129.589L82.6105 46.0784L82.6105 45.9828L82.706 45.9828L84.2814 45.9828L84.2814 45.9428L84.377 45.9428L89.9335 45.9428L90.029 45.9428L90.029 45.9828L91.9625 45.9828Z" fill="#FFFBF4" stroke="#FFFBF4" stroke-width="0.191072"></path>
</svg><style>@media (prefers-color-scheme: light) { :root { filter: none; } }
@media (prefers-color-scheme: dark) { :root { filter: none; } }
</style></svg>